<?xml version="1.0" encoding="UTF-8"?>
<svg xmlns="http://www.w3.org/2000/svg" xmlns:xlink="http://www.w3.org/1999/xlink" width="19pt" height="22pt" viewBox="0 0 19 22" version="1.1">
<g id="surface1">
<path style=" stroke:none;fill-rule:nonzero;fill:rgb(100%,100%,100%);fill-opacity:1;" d="M 5.816406 0.0625 C 5.714844 0.0625 5.605469 0.0898438 5.507812 0.140625 C 5.195312 0.3125 5.078125 0.710938 5.253906 1.015625 L 5.960938 2.273438 C 4.257812 3.3125 3.128906 5.085938 3.128906 7.105469 C 3.128906 7.113281 3.128906 7.128906 3.128906 7.140625 C 3.128906 7.144531 3.128906 7.148438 3.128906 7.152344 C 3.128906 7.160156 3.128906 7.167969 3.128906 7.171875 L 3.128906 7.484375 C 2.800781 7.113281 2.320312 6.878906 1.78125 6.878906 C 0.800781 6.878906 0 7.664062 0 8.632812 L 0 14.042969 C 0 15.011719 0.800781 15.800781 1.78125 15.800781 C 2.320312 15.800781 2.800781 15.566406 3.128906 15.195312 L 3.128906 15.953125 C 3.128906 16.972656 3.976562 17.808594 5.015625 17.808594 L 5.492188 17.808594 L 5.492188 20.214844 C 5.492188 21.183594 6.292969 21.972656 7.277344 21.972656 C 8.261719 21.972656 9.058594 21.183594 9.058594 20.214844 L 9.058594 17.808594 L 9.886719 17.808594 L 9.886719 20.214844 C 9.886719 21.183594 10.6875 21.972656 11.671875 21.972656 C 12.652344 21.972656 13.453125 21.183594 13.453125 20.214844 L 13.453125 17.808594 L 13.933594 17.808594 C 14.96875 17.808594 15.816406 16.972656 15.816406 15.953125 L 15.816406 15.195312 C 16.144531 15.566406 16.625 15.800781 17.164062 15.800781 C 18.148438 15.800781 18.945312 15.011719 18.945312 14.042969 L 18.945312 8.632812 C 18.945312 7.664062 18.148438 6.878906 17.164062 6.878906 C 16.625 6.878906 16.144531 7.113281 15.816406 7.484375 L 15.816406 7.171875 C 15.816406 7.160156 15.816406 7.152344 15.816406 7.152344 C 15.816406 7.132812 15.816406 7.117188 15.816406 7.105469 C 15.816406 5.085938 14.6875 3.3125 12.984375 2.277344 L 13.695312 1.015625 C 13.867188 0.710938 13.753906 0.3125 13.4375 0.140625 C 13.339844 0.0898438 13.234375 0.0625 13.128906 0.0625 C 12.898438 0.0625 12.671875 0.179688 12.550781 0.394531 L 11.808594 1.710938 C 11.085938 1.449219 10.296875 1.304688 9.472656 1.304688 C 8.652344 1.304688 7.859375 1.445312 7.136719 1.710938 L 6.394531 0.394531 C 6.277344 0.179688 6.050781 0.0625 5.816406 0.0625 Z M 5.816406 0.0625 "/>
<path style=" stroke:none;fill-rule:nonzero;fill:rgb(64.313725%,77.647059%,22.352941%);fill-opacity:1;" d="M 1.78125 7.335938 C 1.050781 7.335938 0.464844 7.910156 0.464844 8.632812 L 0.464844 14.042969 C 0.464844 14.765625 1.050781 15.34375 1.78125 15.34375 C 2.515625 15.34375 3.101562 14.765625 3.101562 14.042969 L 3.101562 8.632812 C 3.101562 7.910156 2.515625 7.335938 1.78125 7.335938 Z M 17.164062 7.335938 C 16.429688 7.335938 15.84375 7.910156 15.84375 8.632812 L 15.84375 14.042969 C 15.84375 14.765625 16.429688 15.34375 17.164062 15.34375 C 17.898438 15.34375 18.480469 14.765625 18.480469 14.042969 L 18.480469 8.632812 C 18.480469 7.910156 17.898438 7.335938 17.164062 7.335938 Z M 17.164062 7.335938 "/>
<path style=" stroke:none;fill-rule:nonzero;fill:rgb(64.313725%,77.647059%,22.352941%);fill-opacity:1;" d="M 7.277344 13.507812 C 6.542969 13.507812 5.957031 14.082031 5.957031 14.808594 L 5.957031 20.214844 C 5.957031 20.9375 6.542969 21.515625 7.277344 21.515625 C 8.011719 21.515625 8.59375 20.9375 8.59375 20.214844 L 8.59375 14.808594 C 8.59375 14.082031 8.011719 13.507812 7.277344 13.507812 Z M 11.671875 13.507812 C 10.9375 13.507812 10.351562 14.082031 10.351562 14.808594 L 10.351562 20.214844 C 10.351562 20.9375 10.9375 21.515625 11.671875 21.515625 C 12.40625 21.515625 12.988281 20.9375 12.988281 20.214844 L 12.988281 14.808594 C 12.988281 14.082031 12.40625 13.507812 11.671875 13.507812 Z M 11.671875 13.507812 "/>
<path style=" stroke:none;fill-rule:nonzero;fill:rgb(64.313725%,77.647059%,22.352941%);fill-opacity:1;" d="M 5.820312 0.519531 C 5.789062 0.519531 5.761719 0.527344 5.734375 0.542969 C 5.640625 0.59375 5.609375 0.703125 5.660156 0.792969 L 6.589844 2.445312 C 4.800781 3.363281 3.59375 5.101562 3.59375 7.101562 L 15.355469 7.101562 C 15.351562 5.101562 14.144531 3.363281 12.355469 2.445312 L 13.285156 0.792969 C 13.339844 0.703125 13.308594 0.59375 13.214844 0.542969 C 13.183594 0.527344 13.15625 0.519531 13.125 0.519531 C 13.058594 0.519531 12.996094 0.550781 12.957031 0.617188 L 12.015625 2.285156 C 11.246094 1.949219 10.382812 1.761719 9.472656 1.761719 C 8.5625 1.761719 7.699219 1.949219 6.929688 2.285156 L 5.988281 0.617188 C 5.953125 0.550781 5.890625 0.519531 5.820312 0.519531 Z M 3.59375 7.558594 L 3.59375 15.953125 C 3.59375 16.726562 4.226562 17.351562 5.015625 17.351562 L 13.933594 17.351562 C 14.71875 17.351562 15.355469 16.726562 15.355469 15.953125 L 15.355469 7.558594 Z M 3.59375 7.558594 "/>
<path style=" stroke:none;fill-rule:nonzero;fill:rgb(100%,100%,100%);fill-opacity:1;" d="M 6.757812 4.015625 C 6.492188 4.015625 6.269531 4.234375 6.269531 4.496094 C 6.269531 4.761719 6.492188 4.980469 6.757812 4.980469 C 7.027344 4.980469 7.25 4.761719 7.25 4.496094 C 7.25 4.234375 7.027344 4.015625 6.757812 4.015625 Z M 12.1875 4.015625 C 11.917969 4.015625 11.695312 4.234375 11.695312 4.496094 C 11.695312 4.761719 11.917969 4.980469 12.1875 4.980469 C 12.457031 4.980469 12.679688 4.761719 12.679688 4.496094 C 12.679688 4.234375 12.457031 4.015625 12.1875 4.015625 Z M 12.1875 4.015625 "/>
</g>
</svg>
