<?xml version="1.0" encoding="UTF-8"?>
<svg xmlns="http://www.w3.org/2000/svg" xmlns:xlink="http://www.w3.org/1999/xlink" width="24pt" height="24pt" viewBox="0 0 24 24" version="1.1">
<g id="surface1">
<path style=" stroke:none;fill-rule:nonzero;fill:rgb(0%,0%,0%);fill-opacity:1;" d="M 24 4.5 L 24 19.5 C 24 20.351562 23.351562 21 22.5 21 L 21 21 L 21 7.386719 L 12 13.851562 L 3 7.386719 L 3 21 L 1.5 21 C 0.648438 21 0 20.351562 0 19.5 L 0 4.5 C 0 4.074219 0.160156 3.699219 0.429688 3.433594 C 0.699219 3.160156 1.074219 3 1.5 3 L 2 3 L 12 10.25 L 22 3 L 22.5 3 C 22.925781 3 23.300781 3.160156 23.570312 3.433594 C 23.839844 3.699219 24 4.074219 24 4.5 Z M 24 4.5 "/>
</g>
</svg>
