<?xml version="1.0" encoding="UTF-8"?>
<svg xmlns="http://www.w3.org/2000/svg" xmlns:xlink="http://www.w3.org/1999/xlink" width="20pt" height="20pt" viewBox="0 0 20 20" version="1.1">
<g id="surface1">
<path style=" stroke:none;fill-rule:nonzero;fill:rgb(0%,0%,0%);fill-opacity:1;" d="M 17.039062 17.042969 L 14.078125 17.042969 L 14.078125 12.402344 C 14.078125 11.296875 14.054688 9.871094 12.535156 9.871094 C 10.988281 9.871094 10.753906 11.074219 10.753906 12.320312 L 10.753906 17.042969 L 7.792969 17.042969 L 7.792969 7.5 L 10.636719 7.5 L 10.636719 8.800781 L 10.675781 8.800781 C 11.074219 8.050781 12.039062 7.257812 13.484375 7.257812 C 16.484375 7.257812 17.039062 9.234375 17.039062 11.804688 Z M 4.449219 6.195312 C 3.496094 6.195312 2.726562 5.421875 2.726562 4.472656 C 2.726562 3.523438 3.496094 2.753906 4.449219 2.753906 C 5.398438 2.753906 6.167969 3.523438 6.167969 4.472656 C 6.167969 5.421875 5.398438 6.195312 4.449219 6.195312 Z M 5.933594 17.042969 L 2.960938 17.042969 L 2.960938 7.5 L 5.933594 7.5 Z M 18.519531 0 L 1.476562 0 C 0.660156 0 0 0.644531 0 1.441406 L 0 18.558594 C 0 19.355469 0.660156 20 1.476562 20 L 18.519531 20 C 19.332031 20 20 19.355469 20 18.558594 L 20 1.441406 C 20 0.644531 19.332031 0 18.519531 0 Z M 18.519531 0 "/>
</g>
</svg>
