<?xml version="1.0" encoding="UTF-8"?>
<svg xmlns="http://www.w3.org/2000/svg" xmlns:xlink="http://www.w3.org/1999/xlink" width="24pt" height="24pt" viewBox="0 0 24 24" version="1.1">
<g id="surface1">
<path style=" stroke:none;fill-rule:nonzero;fill:rgb(0%,0%,0%);fill-opacity:1;" d="M 18.984375 21.863281 L 18.984375 15.460938 L 21.121094 15.460938 L 21.121094 24 L 1.84375 24 L 1.84375 15.460938 L 3.972656 15.460938 L 3.972656 21.863281 Z M 6.109375 19.730469 L 16.851562 19.730469 L 16.851562 17.59375 L 6.109375 17.59375 Z M 6.371094 14.878906 L 16.851562 17.066406 L 17.300781 14.996094 L 6.824219 12.8125 Z M 7.730469 9.824219 L 17.433594 14.351562 L 18.335938 12.402344 L 8.632812 7.871094 L 7.730469 9.808594 Z M 10.445312 5.039062 L 18.660156 11.894531 L 20.019531 10.273438 L 11.804688 3.421875 L 10.453125 5.035156 Z M 15.75 0 L 14.003906 1.292969 L 20.410156 9.898438 L 22.15625 8.605469 Z M 15.75 0 "/>
</g>
</svg>
